<svg width="15" height="15" viewBox="0 0 15 15" fill="none" xmlns="http://www.w3.org/2000/svg">
<path d="M12.3509 5.57438L9.42569 2.64905C9.35424 2.57759 9.23845 2.57759 9.16703 2.64905L2.42639 9.38989C2.35494 9.46135 2.35494 9.57716 2.42639 9.64856L5.35163 12.5739C5.42308 12.6453 5.53887 12.6453 5.61029 12.5739L12.3509 5.83305C12.4224 5.76162 12.4224 5.64583 12.3509 5.57438Z" fill="#f2b63e"/>
<path d="M14.8393 2.56863L12.4314 0.160682C12.2173 -0.0534873 11.8696 -0.0536338 11.6554 0.160682L10.2018 1.61433C10.1303 1.68579 10.1303 1.80158 10.2018 1.87301L13.127 4.79833C13.1985 4.86973 13.3143 4.86973 13.3857 4.79833L14.8393 3.34468C15.0536 3.13042 15.0536 2.78295 14.8393 2.56863Z" fill="#f2b63e"/>
<path d="M14.8868 14.3886C14.8559 14.1086 14.6088 13.9022 14.3271 13.9022H3.27046L4.32686 13.458C4.44663 13.4076 4.47719 13.2519 4.38528 13.16L1.8407 10.6154C1.7488 10.5235 1.59311 10.554 1.54275 10.6738C1.52995 10.7043 0.0600514 14.1996 0.0476001 14.2303C-0.122763 14.6172 0.189838 15.0216 0.578084 14.9997H14.3415C14.6651 14.9997 14.9233 14.7196 14.8868 14.3886Z" fill="#f2b63e"/>
</svg>
