<svg width="28" height="27" viewBox="0 0 28 27" fill="none" xmlns="http://www.w3.org/2000/svg">
<path d="M23.9558 7.08333H12.7058C10.7529 7.08333 9.16411 5.49458 9.16411 3.54167C9.16411 1.58875 10.7529 0 12.7058 0H23.9558C25.9087 0 27.4974 1.58875 27.4974 3.54167C27.4974 5.49458 25.9087 7.08333 23.9558 7.08333ZM12.7058 1.66667C11.672 1.66667 10.8308 2.50792 10.8308 3.54167C10.8308 4.57542 11.672 5.41667 12.7058 5.41667H23.9558C24.9895 5.41667 25.8308 4.57542 25.8308 3.54167C25.8308 2.50792 24.9895 1.66667 23.9558 1.66667H12.7058Z" fill="black"/>
<path d="M23.9558 26.6666H12.7058C10.7529 26.6666 9.16411 25.0779 9.16411 23.125C9.16411 21.1721 10.7529 19.5833 12.7058 19.5833H23.9558C25.9087 19.5833 27.4974 21.1721 27.4974 23.125C27.4974 25.0779 25.9087 26.6666 23.9558 26.6666ZM12.7058 21.25C11.672 21.25 10.8308 22.0912 10.8308 23.125C10.8308 24.1587 11.672 25 12.7058 25H23.9558C24.9895 25 25.8308 24.1587 25.8308 23.125C25.8308 22.0912 24.9895 21.25 23.9558 21.25H12.7058Z" fill="black"/>
<path d="M23.9558 17.0833H12.7058C10.7529 17.0833 9.16411 15.4946 9.16411 13.5417C9.16411 11.5888 10.7529 10 12.7058 10H23.9558C25.9087 10 27.4974 11.5888 27.4974 13.5417C27.4974 15.4946 25.9087 17.0833 23.9558 17.0833ZM12.7058 11.6667C11.672 11.6667 10.8308 12.5079 10.8308 13.5417C10.8308 14.5754 11.672 15.4167 12.7058 15.4167H23.9558C24.9895 15.4167 25.8308 14.5754 25.8308 13.5417C25.8308 12.5079 24.9895 11.6667 23.9558 11.6667H12.7058Z" fill="black"/>
<path d="M3.95577 7.08333H3.5391C1.58619 7.08333 -0.00256348 5.49458 -0.00256348 3.54167C-0.00256348 1.58875 1.58619 0 3.5391 0H3.95577C5.90869 0 7.49744 1.58875 7.49744 3.54167C7.49744 5.49458 5.90869 7.08333 3.95577 7.08333ZM3.5391 1.66667C2.50535 1.66667 1.6641 2.50792 1.6641 3.54167C1.6641 4.57542 2.50535 5.41667 3.5391 5.41667H3.95577C4.98952 5.41667 5.83077 4.57542 5.83077 3.54167C5.83077 2.50792 4.98952 1.66667 3.95577 1.66667H3.5391Z" fill="black"/>
<path d="M3.95577 26.6666H3.5391C1.58619 26.6666 -0.00256348 25.0779 -0.00256348 23.125C-0.00256348 21.1721 1.58619 19.5833 3.5391 19.5833H3.95577C5.90869 19.5833 7.49744 21.1721 7.49744 23.125C7.49744 25.0779 5.90869 26.6666 3.95577 26.6666ZM3.5391 21.25C2.50535 21.25 1.6641 22.0912 1.6641 23.125C1.6641 24.1587 2.50535 25 3.5391 25H3.95577C4.98952 25 5.83077 24.1587 5.83077 23.125C5.83077 22.0912 4.98952 21.25 3.95577 21.25H3.5391Z" fill="black"/>
<path d="M3.95577 17.0833H3.5391C1.58619 17.0833 -0.00256348 15.4946 -0.00256348 13.5417C-0.00256348 11.5888 1.58619 10 3.5391 10H3.95577C5.90869 10 7.49744 11.5888 7.49744 13.5417C7.49744 15.4946 5.90869 17.0833 3.95577 17.0833ZM3.5391 11.6667C2.50535 11.6667 1.6641 12.5079 1.6641 13.5417C1.6641 14.5754 2.50535 15.4167 3.5391 15.4167H3.95577C4.98952 15.4167 5.83077 14.5754 5.83077 13.5417C5.83077 12.5079 4.98952 11.6667 3.95577 11.6667H3.5391Z" fill="black"/>
</svg>
