<svg width="20" height="8" viewBox="0 0 20 8" fill="none" xmlns="http://www.w3.org/2000/svg">
<path d="M18.5714 7.14286H1.42857C1.04981 7.14246 0.686681 6.99182 0.418858 6.724C0.151034 6.45618 0.000397072 6.09304 0 5.71429V1.42857C0.000397072 1.04981 0.151034 0.68668 0.418858 0.418857C0.686681 0.151034 1.04981 0.000397072 1.42857 0H18.5714C18.9502 0.000397072 19.3133 0.151034 19.5811 0.418857C19.849 0.68668 19.9996 1.04981 20 1.42857V5.71429C19.9996 6.09304 19.849 6.45618 19.5811 6.724C19.3133 6.99182 18.9502 7.14246 18.5714 7.14286ZM1.42857 1.42857V5.71429H18.5714V1.42857H1.42857Z" fill="black"/>
<path d="M12 2H2V5.33333H12V2Z" fill="black"/>
</svg>
