<svg width="21" height="20" viewBox="0 0 21 20" fill="none" xmlns="http://www.w3.org/2000/svg">
<path fill-rule="evenodd" clip-rule="evenodd" d="M8.6734 1.13531C9.29666 -0.378442 11.4406 -0.378434 12.0639 1.13531L14.2055 6.33629L19.0088 6.61884C20.6934 6.71794 21.3607 8.848 20.0338 9.89064L16.0352 13.0324L17.6289 17.5481C18.2198 19.222 16.3243 20.6747 14.8615 19.669L10.3686 16.5801L5.87579 19.669C4.41297 20.6747 2.51747 19.222 3.10829 17.5481L4.70204 13.0324L0.703447 9.89064C-0.6235 8.84809 0.0438496 6.71794 1.72847 6.61884L6.53178 6.33629L8.6734 1.13531ZM10.3686 1.83337L7.7887 8.09889L1.83614 8.44906L6.8684 12.403L4.83713 18.1582L10.3686 14.3553L15.9002 18.1582L13.8689 12.403L18.9011 8.44906L12.9485 8.09889L10.3686 1.83337Z" fill="#0F0F0F"/>
</svg>
