<svg width="14" height="15" viewBox="0 0 14 15" fill="none" xmlns="http://www.w3.org/2000/svg">
<path d="M11.257 0H2.25141C1.00563 0 0 0.998124 0 2.22889V10.4165C0 11.6473 1.00563 12.6454 2.25141 12.6454H2.82176C3.42214 12.6454 3.9925 12.878 4.41276 13.2983L5.69606 14.5666C6.28143 15.1445 7.23452 15.1445 7.81989 14.5666L9.10319 13.2983C9.52345 12.878 10.1013 12.6454 10.6942 12.6454H11.257C12.5028 12.6454 13.5084 11.6473 13.5084 10.4165V2.22889C13.5084 0.998124 12.5028 0 11.257 0ZM6.75422 2.81426C7.72233 2.81426 8.50281 3.59475 8.50281 4.56285C8.50281 5.53096 7.72233 6.31144 6.75422 6.31144C5.78612 6.31144 5.00563 5.52345 5.00563 4.56285C5.00563 3.59475 5.78612 2.81426 6.75422 2.81426ZM8.76548 9.80113H4.74296C4.13508 9.80113 3.78236 9.1257 4.12008 8.62289C4.63039 7.86492 5.62101 7.3546 6.75422 7.3546C7.88743 7.3546 8.87805 7.86492 9.38837 8.62289C9.72608 9.1257 9.36585 9.80113 8.76548 9.80113Z" fill="#f2b63e"/>
</svg>
