<svg width="20" height="20" viewBox="0 0 20 20" fill="none" xmlns="http://www.w3.org/2000/svg">
<path d="M14.8482 1.40227L18.6007 5.15582L19.2258 4.52973C19.4722 4.28333 19.6677 3.99082 19.801 3.66889C19.9344 3.34696 20.003 3.00191 20.003 2.65345C20.003 2.305 19.9344 1.95995 19.801 1.63802C19.6677 1.31609 19.4722 1.02357 19.2258 0.777179C18.9794 0.530783 18.6869 0.335331 18.365 0.201982C18.043 0.0686336 17.698 0 17.3495 0C16.6458 0 15.9709 0.27956 15.4733 0.777179L14.8482 1.40227ZM16.8775 6.87507L13.1249 3.12152L1.21818 15.0293L0 20L4.97073 18.7828L16.8775 6.87507Z" fill="white"/>
</svg>
