<svg width="20" height="20" viewBox="0 0 20 20" fill="none" xmlns="http://www.w3.org/2000/svg">
<path fill-rule="evenodd" clip-rule="evenodd" d="M0 10C0 4.47715 4.47715 0 10 0C15.5229 0 20 4.47715 20 10C20 15.5229 15.5229 20 10 20C4.47715 20 0 15.5229 0 10ZM6.71597 6.71597C6.98844 6.44352 7.43018 6.44352 7.70263 6.71597L10 9.0133L12.2974 6.71597C12.5699 6.44352 13.0115 6.44352 13.284 6.71597C13.5565 6.98844 13.5565 7.43018 13.284 7.70263L10.9866 10L13.284 12.2974C13.5565 12.5699 13.5565 13.0115 13.284 13.284C13.0115 13.5565 12.5698 13.5565 12.2973 13.284L10 10.9867L7.70263 13.284C7.43017 13.5565 6.98843 13.5565 6.71597 13.284C6.44352 13.0115 6.44352 12.5698 6.71597 12.2973L9.0133 10L6.71597 7.70263C6.44352 7.43017 6.44352 6.98843 6.71597 6.71597Z" fill="black"/>
</svg>
