<svg width="24" height="25" viewBox="0 0 24 25" fill="none" xmlns="http://www.w3.org/2000/svg">
<path fill-rule="evenodd" clip-rule="evenodd" d="M18.2692 15.3846C16.5673 15.3846 15.0817 16.274 14.2269 17.6077L9.07789 14.6654C9.41059 14.0116 9.61539 13.2827 9.61539 12.5C9.61539 12.0163 9.52213 11.5586 9.38944 11.1183L14.7462 8.0577C15.624 9.00962 16.8721 9.61538 18.2692 9.61538C20.925 9.61538 23.0769 7.46346 23.0769 4.80769C23.0769 2.15192 20.925 0 18.2692 0C15.6135 0 13.4615 2.15192 13.4615 4.80769C13.4615 5.29135 13.5548 5.74903 13.6875 6.19037L8.33077 9.25C7.45289 8.29903 6.20481 7.69231 4.80769 7.69231C2.15192 7.69231 0 9.84423 0 12.5C0 15.1558 2.15192 17.3077 4.80769 17.3077C5.90385 17.3077 6.90287 16.9269 7.71153 16.3096L13.5144 19.6731C13.4952 19.8462 13.4615 20.0135 13.4615 20.1923C13.4615 22.8481 15.6135 25 18.2692 25C20.925 25 23.0769 22.8481 23.0769 20.1923C23.0769 17.5365 20.925 15.3846 18.2692 15.3846Z" fill="white"/>
</svg>
