<svg id="visual" viewBox="0 0 900 600" width="900" height="600" xmlns="http://www.w3.org/2000/svg" xmlns:xlink="http://www.w3.org/1999/xlink" version="1.1"><rect x="0" y="0" width="900" height="600" fill="#ff7e5f"></rect><path d="M0 226L15 226.7C30 227.3 60 228.7 90 233C120 237.3 150 244.7 180 248.7C210 252.7 240 253.3 270 252.2C300 251 330 248 360 243C390 238 420 231 450 229.8C480 228.7 510 233.3 540 237.3C570 241.3 600 244.7 630 243.8C660 243 690 238 720 238.5C750 239 780 245 810 244C840 243 870 235 885 231L900 227L900 0L885 0C870 0 840 0 810 0C780 0 750 0 720 0C690 0 660 0 630 0C600 0 570 0 540 0C510 0 480 0 450 0C420 0 390 0 360 0C330 0 300 0 270 0C240 0 210 0 180 0C150 0 120 0 90 0C60 0 30 0 15 0L0 0Z" fill="#fa7268"></path><path d="M0 187L15 183.7C30 180.3 60 173.7 90 174C120 174.3 150 181.7 180 185.8C210 190 240 191 270 189.2C300 187.3 330 182.7 360 179.3C390 176 420 174 450 172.7C480 171.3 510 170.7 540 172C570 173.3 600 176.7 630 181.2C660 185.7 690 191.3 720 194C750 196.7 780 196.3 810 195.5C840 194.7 870 193.3 885 192.7L900 192L900 0L885 0C870 0 840 0 810 0C780 0 750 0 720 0C690 0 660 0 630 0C600 0 570 0 540 0C510 0 480 0 450 0C420 0 390 0 360 0C330 0 300 0 270 0C240 0 210 0 180 0C150 0 120 0 90 0C60 0 30 0 15 0L0 0Z" fill="#f5655d"></path><path d="M0 131L15 132C30 133 60 135 90 131.3C120 127.7 150 118.3 180 113C210 107.7 240 106.3 270 110.8C300 115.3 330 125.7 360 125.3C390 125 420 114 450 113.3C480 112.7 510 122.3 540 124.2C570 126 600 120 630 116.5C660 113 690 112 720 113C750 114 780 117 810 119.3C840 121.7 870 123.3 885 124.2L900 125L900 0L885 0C870 0 840 0 810 0C780 0 750 0 720 0C690 0 660 0 630 0C600 0 570 0 540 0C510 0 480 0 450 0C420 0 390 0 360 0C330 0 300 0 270 0C240 0 210 0 180 0C150 0 120 0 90 0C60 0 30 0 15 0L0 0Z" fill="#f05752"></path><path d="M0 49L15 53.3C30 57.7 60 66.3 90 65.3C120 64.3 150 53.7 180 52.2C210 50.7 240 58.3 270 59C300 59.7 330 53.3 360 53C390 52.7 420 58.3 450 57.8C480 57.3 510 50.7 540 50.5C570 50.3 600 56.7 630 60.8C660 65 690 67 720 68.2C750 69.3 780 69.7 810 66C840 62.3 870 54.7 885 50.8L900 47L900 0L885 0C870 0 840 0 810 0C780 0 750 0 720 0C690 0 660 0 630 0C600 0 570 0 540 0C510 0 480 0 450 0C420 0 390 0 360 0C330 0 300 0 270 0C240 0 210 0 180 0C150 0 120 0 90 0C60 0 30 0 15 0L0 0Z" fill="#f2b63e"></path></svg>